<svg width="314" height="48" viewBox="0 0 314 48" fill="none" xmlns="http://www.w3.org/2000/svg">
<path d="M7.456 30.776H14.624V35H1.984V12.536H7.456V30.776ZM25.362 35.256C23.6127 35.256 22.034 34.8827 20.626 34.136C19.2393 33.3893 18.1407 32.3227 17.33 30.936C16.5407 29.5493 16.146 27.928 16.146 26.072C16.146 24.2373 16.5513 22.6267 17.362 21.24C18.1727 19.832 19.282 18.7547 20.69 18.008C22.098 17.2613 23.6767 16.888 25.426 16.888C27.1753 16.888 28.754 17.2613 30.162 18.008C31.57 18.7547 32.6793 19.832 33.49 21.24C34.3007 22.6267 34.706 24.2373 34.706 26.072C34.706 27.9067 34.29 29.528 33.458 30.936C32.6473 32.3227 31.5273 33.3893 30.098 34.136C28.69 34.8827 27.1113 35.256 25.362 35.256ZM25.362 30.52C26.4073 30.52 27.2927 30.136 28.018 29.368C28.7647 28.6 29.138 27.5013 29.138 26.072C29.138 24.6427 28.7753 23.544 28.05 22.776C27.346 22.008 26.4713 21.624 25.426 21.624C24.3593 21.624 23.474 22.008 22.77 22.776C22.066 23.5227 21.714 24.6213 21.714 26.072C21.714 27.5013 22.0553 28.6 22.738 29.368C23.442 30.136 24.3167 30.52 25.362 30.52ZM48.489 16.952C50.5797 16.952 52.2437 17.6347 53.481 19C54.7397 20.344 55.369 22.2 55.369 24.568V35H49.929V25.304C49.929 24.1093 49.6197 23.1813 49.001 22.52C48.3823 21.8587 47.5503 21.528 46.505 21.528C45.4597 21.528 44.6277 21.8587 44.009 22.52C43.3903 23.1813 43.081 24.1093 43.081 25.304V35H37.609V17.144H43.081V19.512C43.6357 18.7227 44.3823 18.104 45.321 17.656C46.2597 17.1867 47.3157 16.952 48.489 16.952ZM58.0835 26.04C58.0835 24.2053 58.4248 22.5947 59.1075 21.208C59.8115 19.8213 60.7608 18.7547 61.9555 18.008C63.1502 17.2613 64.4835 16.888 65.9555 16.888C67.1288 16.888 68.1955 17.1333 69.1555 17.624C70.1368 18.1147 70.9048 18.776 71.4595 19.608V11.32H76.9315V35H71.4595V32.44C70.9475 33.2933 70.2115 33.976 69.2515 34.488C68.3128 35 67.2142 35.256 65.9555 35.256C64.4835 35.256 63.1502 34.8827 61.9555 34.136C60.7608 33.368 59.8115 32.2907 59.1075 30.904C58.4248 29.496 58.0835 27.8747 58.0835 26.04ZM71.4595 26.072C71.4595 24.7067 71.0755 23.6293 70.3075 22.84C69.5608 22.0507 68.6435 21.656 67.5555 21.656C66.4675 21.656 65.5395 22.0507 64.7715 22.84C64.0248 23.608 63.6515 24.6747 63.6515 26.04C63.6515 27.4053 64.0248 28.4933 64.7715 29.304C65.5395 30.0933 66.4675 30.488 67.5555 30.488C68.6435 30.488 69.5608 30.0933 70.3075 29.304C71.0755 28.5147 71.4595 27.4373 71.4595 26.072ZM89.0183 35.256C87.2689 35.256 85.6903 34.8827 84.2823 34.136C82.8956 33.3893 81.7969 32.3227 80.9863 30.936C80.1969 29.5493 79.8023 27.928 79.8023 26.072C79.8023 24.2373 80.2076 22.6267 81.0182 21.24C81.8289 19.832 82.9383 18.7547 84.3463 18.008C85.7543 17.2613 87.3329 16.888 89.0823 16.888C90.8316 16.888 92.4103 17.2613 93.8183 18.008C95.2263 18.7547 96.3356 19.832 97.1463 21.24C97.9569 22.6267 98.3623 24.2373 98.3623 26.072C98.3623 27.9067 97.9463 29.528 97.1143 30.936C96.3036 32.3227 95.1836 33.3893 93.7543 34.136C92.3463 34.8827 90.7676 35.256 89.0183 35.256ZM89.0183 30.52C90.0636 30.52 90.9489 30.136 91.6743 29.368C92.4209 28.6 92.7943 27.5013 92.7943 26.072C92.7943 24.6427 92.4316 23.544 91.7063 22.776C91.0023 22.008 90.1276 21.624 89.0823 21.624C88.0156 21.624 87.1303 22.008 86.4263 22.776C85.7223 23.5227 85.3703 24.6213 85.3703 26.072C85.3703 27.5013 85.7116 28.6 86.3943 29.368C87.0983 30.136 87.9729 30.52 89.0183 30.52ZM112.145 16.952C114.236 16.952 115.9 17.6347 117.137 19C118.396 20.344 119.025 22.2 119.025 24.568V35H113.585V25.304C113.585 24.1093 113.276 23.1813 112.657 22.52C112.039 21.8587 111.207 21.528 110.161 21.528C109.116 21.528 108.284 21.8587 107.665 22.52C107.047 23.1813 106.737 24.1093 106.737 25.304V35H101.265V17.144H106.737V19.512C107.292 18.7227 108.039 18.104 108.977 17.656C109.916 17.1867 110.972 16.952 112.145 16.952ZM143.689 12.536V27.832C143.689 30.2 143.017 32.024 141.673 33.304C140.35 34.584 138.558 35.224 136.297 35.224C133.929 35.224 132.03 34.552 130.601 33.208C129.172 31.864 128.457 29.9547 128.457 27.48H133.897C133.897 28.4187 134.089 29.1333 134.473 29.624C134.857 30.0933 135.412 30.328 136.137 30.328C136.798 30.328 137.31 30.1147 137.673 29.688C138.036 29.2613 138.217 28.6427 138.217 27.832V12.536H143.689ZM164.941 25.784C164.941 26.296 164.909 26.8293 164.845 27.384H152.461C152.546 28.4933 152.898 29.3467 153.517 29.944C154.157 30.52 154.936 30.808 155.853 30.808C157.218 30.808 158.168 30.232 158.701 29.08H164.525C164.226 30.2533 163.682 31.3093 162.893 32.248C162.125 33.1867 161.154 33.9227 159.981 34.456C158.808 34.9893 157.496 35.256 156.045 35.256C154.296 35.256 152.738 34.8827 151.373 34.136C150.008 33.3893 148.941 32.3227 148.173 30.936C147.405 29.5493 147.021 27.928 147.021 26.072C147.021 24.216 147.394 22.5947 148.141 21.208C148.909 19.8213 149.976 18.7547 151.341 18.008C152.706 17.2613 154.274 16.888 156.045 16.888C157.773 16.888 159.309 17.2507 160.653 17.976C161.997 18.7013 163.042 19.736 163.789 21.08C164.557 22.424 164.941 23.992 164.941 25.784ZM159.341 24.344C159.341 23.4053 159.021 22.6587 158.381 22.104C157.741 21.5493 156.941 21.272 155.981 21.272C155.064 21.272 154.285 21.5387 153.645 22.072C153.026 22.6053 152.642 23.3627 152.493 24.344H159.341ZM193.46 17.144L188.628 35H182.58L179.764 23.416L176.852 35H170.836L165.972 17.144H171.444L173.972 29.912L176.98 17.144H182.772L185.812 29.848L188.308 17.144H193.46ZM212.378 25.784C212.378 26.296 212.347 26.8293 212.283 27.384H199.899C199.984 28.4933 200.336 29.3467 200.955 29.944C201.595 30.52 202.373 30.808 203.291 30.808C204.656 30.808 205.605 30.232 206.139 29.08H211.963C211.664 30.2533 211.12 31.3093 210.331 32.248C209.563 33.1867 208.592 33.9227 207.419 34.456C206.245 34.9893 204.933 35.256 203.483 35.256C201.733 35.256 200.176 34.8827 198.811 34.136C197.445 33.3893 196.379 32.3227 195.611 30.936C194.843 29.5493 194.459 27.928 194.459 26.072C194.459 24.216 194.832 22.5947 195.579 21.208C196.347 19.8213 197.413 18.7547 198.779 18.008C200.144 17.2613 201.712 16.888 203.483 16.888C205.211 16.888 206.747 17.2507 208.091 17.976C209.435 18.7013 210.48 19.736 211.227 21.08C211.995 22.424 212.378 23.992 212.378 25.784ZM206.779 24.344C206.779 23.4053 206.459 22.6587 205.819 22.104C205.179 21.5493 204.379 21.272 203.419 21.272C202.501 21.272 201.723 21.5387 201.083 22.072C200.464 22.6053 200.08 23.3627 199.931 24.344H206.779ZM220.737 11.32V35H215.265V11.32H220.737ZM230.175 20.12C230.815 19.1387 231.615 18.3707 232.575 17.816C233.535 17.24 234.601 16.952 235.775 16.952V22.744H234.271C232.905 22.744 231.881 23.0427 231.199 23.64C230.516 24.216 230.175 25.24 230.175 26.712V35H224.703V17.144H230.175V20.12ZM256.63 17.144L245.43 43.48H239.542L243.638 34.392L236.374 17.144H242.486L246.614 28.312L250.71 17.144H256.63Z" fill="#122A5A"/>
<path d="M313.977 16.9047L313.965 16.8103C313.942 16.6921 313.901 16.578 313.844 16.4718L307.802 6.93506C307.802 6.93506 307.031 6 306.848 6H281.102L273.359 16.1483L273.268 16.2418L273.256 16.2857C273.19 16.3888 273.136 16.4985 273.095 16.613L273.064 16.7037C272.975 16.994 272.979 17.3042 273.076 17.592L273.113 17.6939C273.161 17.8145 273.221 17.9249 273.292 18.0231L292.011 41.2753L292.049 41.3286C292.145 41.4502 292.263 41.5577 292.406 41.6559L292.514 41.7223C292.621 41.7877 292.733 41.8401 292.895 41.8981L293.001 41.9327C293.184 41.9785 293.343 42 293.499 42C293.656 42 293.809 41.9794 294.016 41.9271L294.143 41.8831C294.267 41.8401 294.379 41.7868 294.513 41.7055L294.597 41.654C294.741 41.554 294.856 41.4455 294.92 41.3604L313.663 18.0838C313.829 17.867 313.937 17.6132 313.978 17.3451L313.992 17.2245L314 17.1291L313.977 16.9047ZM303.927 16.2857L306.595 11.5515L309.261 16.2857H303.927ZM302.327 19.0909H308.656L298.106 32.1958L302.327 19.0909ZM300.761 14.8663L296.908 9.74026H303.649L300.761 14.8663ZM288.418 19.0909H298.582L293.499 34.872L288.418 19.0909ZM289.426 16.2857L293.499 10.8661L297.571 16.2857H289.426ZM286.558 14.4418L284.792 9.74026H290.091L286.558 14.4418ZM288.893 32.1968L278.342 19.0909H284.672L288.893 32.1968ZM281.736 11.5842L283.503 16.2857H278.204L281.736 11.5842Z" fill="#122A5A"/>
</svg>
