<svg width="43" height="26" viewBox="0 0 43 26" fill="none" xmlns="http://www.w3.org/2000/svg">
<path d="M0.946496 0.994237C1.55272 0.357628 2.37483 0 3.23203 0C4.08923 0 4.91134 0.357628 5.51756 0.994237L21.5195 17.8033L37.5215 0.994237C38.1312 0.37567 38.9478 0.0333931 39.7954 0.0411301C40.643 0.0488671 41.4538 0.405998 42.0532 1.0356C42.6525 1.66521 42.9925 2.51691 42.9999 3.40727C43.0072 4.29763 42.6814 5.15541 42.0925 5.79586L23.805 25.0058C23.1988 25.6424 22.3767 26 21.5195 26C20.6623 26 19.8402 25.6424 19.234 25.0058L0.946496 5.79586C0.340455 5.15906 0 4.29549 0 3.39505C0 2.49461 0.340455 1.63104 0.946496 0.994237Z" fill="white"/>
</svg>
