<svg width="21" height="25" viewBox="0 0 21 25" fill="none" xmlns="http://www.w3.org/2000/svg">
<path d="M11.0306 0.0210949C12.3487 0 13.6593 0.0125007 14.9683 0C15.0477 1.59462 15.6021 3.21892 16.7306 4.34633C17.8569 5.50186 19.45 6.03079 21 6.20971V10.4045C19.5474 10.3552 18.088 10.0427 16.7699 9.39581C16.1958 9.12705 15.661 8.78094 15.1375 8.42701C15.1307 11.4709 15.1496 14.5109 15.1187 17.5423C15.0401 18.9987 14.5755 20.448 13.7567 21.648C12.4393 23.6458 10.1528 24.9482 7.80437 24.9888C6.36388 25.074 4.92489 24.6677 3.69741 23.9192C1.66318 22.6786 0.231749 20.4073 0.0232663 17.9697C-0.00299443 17.4535 -0.00702711 16.9363 0.0111803 16.4196C0.19247 14.4375 1.14046 12.5413 2.61193 11.2514C4.2798 9.74896 6.61617 9.03329 8.80373 9.45675C8.82413 10.9998 8.76445 12.5413 8.76445 14.0843C7.76509 13.75 6.59729 13.8437 5.72407 14.4711C5.08521 14.9064 4.60242 15.5469 4.35005 16.2938C4.14156 16.822 4.20124 17.4087 4.21333 17.9697C4.45278 19.6792 6.04209 21.116 7.73866 20.9605C8.86341 20.948 9.94133 20.273 10.5275 19.2846C10.7171 18.9385 10.9294 18.5846 10.9407 18.1775C11.0396 16.3142 11.0004 14.4586 11.0124 12.5952C11.0208 8.39576 11.0004 4.20804 11.0313 0.0218762L11.0306 0.0210949Z" fill="#808080"/>
</svg>
