<svg width="24" height="25" viewBox="0 0 24 25" fill="none" xmlns="http://www.w3.org/2000/svg">
<path d="M11.9968 8.4983C9.79333 8.4983 7.99515 10.2965 7.99515 12.5C7.99515 14.7035 9.79333 16.5017 11.9968 16.5017C14.2002 16.5017 15.9984 14.7035 15.9984 12.5C15.9984 10.2965 14.2002 8.4983 11.9968 8.4983ZM23.9987 12.5C23.9987 10.8429 24.0137 9.20077 23.9206 7.54665C23.8275 5.62536 23.3893 3.9202 21.9843 2.51525C20.5764 1.1073 18.8743 0.672008 16.953 0.578946C15.2959 0.485883 13.6539 0.500893 11.9998 0.500893C10.3427 0.500893 8.70061 0.485883 7.04652 0.578946C5.12526 0.672008 3.42014 1.1103 2.01522 2.51525C0.607291 3.92321 0.172005 5.62536 0.0789442 7.54665C-0.014117 9.20377 0.000892919 10.8459 0.000892919 12.5C0.000892919 14.1541 -0.014117 15.7992 0.0789442 17.4533C0.172005 19.3746 0.610293 21.0798 2.01522 22.4847C3.42314 23.8927 5.12526 24.328 7.04652 24.4211C8.70361 24.5141 10.3457 24.4991 11.9998 24.4991C13.6569 24.4991 15.2989 24.5141 16.953 24.4211C18.8743 24.328 20.5794 23.8897 21.9843 22.4847C23.3923 21.0768 23.8275 19.3746 23.9206 17.4533C24.0167 15.7992 23.9987 14.1571 23.9987 12.5ZM11.9968 18.6572C8.58954 18.6572 5.83973 15.9073 5.83973 12.5C5.83973 9.0927 8.58954 6.34284 11.9968 6.34284C15.404 6.34284 18.1538 9.0927 18.1538 12.5C18.1538 15.9073 15.404 18.6572 11.9968 18.6572ZM18.406 7.52864C17.6105 7.52864 16.968 6.88621 16.968 6.09067C16.968 5.29513 17.6105 4.6527 18.406 4.6527C19.2015 4.6527 19.8439 5.29513 19.8439 6.09067C19.8442 6.27957 19.8071 6.46667 19.735 6.64124C19.6628 6.81581 19.5569 6.97442 19.4233 7.108C19.2897 7.24157 19.1311 7.34748 18.9565 7.41967C18.782 7.49185 18.5949 7.52888 18.406 7.52864Z" fill="#808080"/>
</svg>
