<svg width="42" height="36" viewBox="0 0 42 36" fill="none" xmlns="http://www.w3.org/2000/svg">
<path fill-rule="evenodd" clip-rule="evenodd" d="M0 18C0 17.3181 0.276531 16.6642 0.768759 16.1821C1.26099 15.6999 1.92859 15.429 2.62471 15.429H33.0346L21.7641 4.39446C21.2712 3.9117 20.9943 3.25694 20.9943 2.57421C20.9943 1.89149 21.2712 1.23673 21.7641 0.75397C22.2569 0.271211 22.9254 0 23.6224 0C24.3194 0 24.9878 0.271211 25.4807 0.75397L41.2289 16.1798C41.4733 16.4186 41.6673 16.7023 41.7996 17.0146C41.9319 17.327 42 17.6618 42 18C42 18.3382 41.9319 18.673 41.7996 18.9854C41.6673 19.2977 41.4733 19.5814 41.2289 19.8202L25.4807 35.246C24.9878 35.7288 24.3194 36 23.6224 36C22.9254 36 22.2569 35.7288 21.7641 35.246C21.2712 34.7633 20.9943 34.1085 20.9943 33.4258C20.9943 32.7431 21.2712 32.0883 21.7641 31.6055L33.0346 20.571H2.62471C1.92859 20.571 1.26099 20.3001 0.768759 19.8179C0.276531 19.3358 0 18.6819 0 18Z" fill="#030D22"/>
</svg>
